# xmcd
# Copyright (C) 1995-1998 Ti Kan
#
# Track frame offsets:
#       150
#       24427
#       42290
#       67722
#       99980
#       122612
#       143657
#       169332
#       201235
#       225870
#       251377
#       281747
#
# Disc length: 4047 seconds
#
# Revision: 0
# Processed by: cddbd v1.5.2PL0 Copyright (c) Steve Scherf et al.
# Submitted via: CD-Import v1.0
#
DISCID=960fcd0c
DTITLE=Various Artist - This Is... Trip Hop
DYEAR=1996
DGENRE=
TTITLE0=New Order - Age Of Consent (Howie B. Remix)
TTITLE1=Future Sound Of London - Far Out Son Of A Lung
TTITLE2=Substance - Fly By Night
TTITLE3=Wagon Christ - Floot
TTITLE4=Bluntz - Aprhohead
TTITLE5=Nightmares On Wax - Nights Introlude
TTITLE6=Smiler - The Chase
TTITLE7=Paul Weller - Kosmos Sx Dub 2000 (Original Version)
TTITLE8=Agent Orange - The Tides
TTITLE9=Primal Scream - Jailbird (Chemical Brothers Remix)
TTITLE10=Holy Haze - Rising Star
TTITLE11=Tempest - Vibes
EXTD=
EXTT0=
EXTT1=
EXTT2=
EXTT3=
EXTT4=
EXTT5=
EXTT6=
EXTT7=
EXTT8=
EXTT9=
EXTT10=
EXTT11=
PLAYORDER=
